<svg width="25" height="25" viewBox="0 0 25 25" fill="none" xmlns="http://www.w3.org/2000/svg">
<path d="M21.168 11.4069V5.29688C21.168 4.19687 20.278 3.29688 19.168 3.29688H14.988C14.568 2.13688 13.468 1.29688 12.168 1.29688C10.868 1.29688 9.76797 2.13688 9.34797 3.29688H5.16797C4.06797 3.29688 3.16797 4.19687 3.16797 5.29688V19.2969C3.16797 20.4069 4.06797 21.2969 5.16797 21.2969H11.278C12.538 22.5369 14.258 23.2969 16.168 23.2969C20.038 23.2969 23.168 20.1669 23.168 16.2969C23.168 14.3869 22.408 12.6669 21.168 11.4069ZM12.168 3.29688C12.718 3.29688 13.168 3.74687 13.168 4.29688C13.168 4.84688 12.718 5.29688 12.168 5.29688C11.618 5.29688 11.168 4.84688 11.168 4.29688C11.168 3.74687 11.618 3.29688 12.168 3.29688ZM5.16797 19.2969V5.29688H7.16797V7.29688H17.168V5.29688H19.168V9.97688C18.258 9.54688 17.248 9.29688 16.168 9.29688H7.16797V11.2969H11.268C10.668 11.8669 10.208 12.5469 9.84797 13.2969H7.16797V15.2969H9.24797C9.19797 15.6269 9.16797 15.9569 9.16797 16.2969C9.16797 17.3769 9.41797 18.3869 9.84797 19.2969H5.16797ZM16.168 21.2969C13.408 21.2969 11.168 19.0569 11.168 16.2969C11.168 13.5369 13.408 11.2969 16.168 11.2969C18.928 11.2969 21.168 13.5369 21.168 16.2969C21.168 19.0569 18.928 21.2969 16.168 21.2969ZM16.668 16.5469L19.528 18.2369L18.778 19.4569L15.168 17.2969V12.2969H16.668V16.5469Z" fill="black"/>
</svg>
